<svg xmlns="http://www.w3.org/2000/svg" viewBox="0 0 240 120" width="240" height="120"><path d="M24,100 Q120,-28 216,100" fill="none" stroke="#7A2E3B" stroke-width="5"></path><g stroke="#1B2A4A" stroke-width="1.8"><line x1="43.2" y1="77.0" x2="43.2" y2="86"></line><line x1="62.4" y1="59.0" x2="62.4" y2="86"></line><line x1="81.6" y1="46.2" x2="81.6" y2="86"></line><line x1="100.8" y1="38.6" x2="100.8" y2="86"></line><line x1="120.0" y1="36.0" x2="120.0" y2="86"></line><line x1="139.2" y1="38.6" x2="139.2" y2="86"></line><line x1="158.4" y1="46.2" x2="158.4" y2="86"></line><line x1="177.6" y1="59.0" x2="177.6" y2="86"></line><line x1="196.8" y1="77.0" x2="196.8" y2="86"></line></g><rect x="15.5" y="54" width="17" height="50" rx="1.5" fill="#1B2A4A"></rect><rect x="13.5" y="52" width="21" height="5" rx="1.5" fill="#1B2A4A"></rect><rect x="207.5" y="54" width="17" height="50" rx="1.5" fill="#1B2A4A"></rect><rect x="205.5" y="52" width="21" height="5" rx="1.5" fill="#1B2A4A"></rect><rect x="12" y="86" width="216" height="5" rx="1.5" fill="#1B2A4A"></rect></svg>